HIERARCHY
ROOT SpineBase
{
  OFFSET 0.000000 0.000000 0.000000
  CHANNELS 6 Xposition Yposition Zposition Zrotation Xrotation Yrotation
  JOINT SpineMid
  {
    OFFSET 0.000000 32.358379 -0.000000
    CHANNELS 3 Zrotation Xrotation Yrotation
    JOINT SpineShoulder
    {
      OFFSET 0.049370 24.017697 -0.857518
      CHANNELS 3 Zrotation Xrotation Yrotation
      JOINT Neck
      {
        OFFSET 0.120567 7.956760 -0.596374
        CHANNELS 3 Zrotation Xrotation Yrotation
        JOINT Head
        {
          OFFSET 3.859049 11.771117 6.210309
          CHANNELS 3 Zrotation Xrotation Yrotation
          End Site
          {
            OFFSET 0 0 0
          }
        }
      }
      JOINT ShoulderLeft
      {
        OFFSET -2.815567 -3.757431 -15.384947
        CHANNELS 3 Zrotation Xrotation Yrotation
        JOINT ElbowLeft
        {
          OFFSET 4.335092 -28.798953 -10.103613
          CHANNELS 3 Zrotation Xrotation Yrotation
          JOINT WristLeft
          {
            OFFSET 7.737194 -20.807229 -3.108785
            CHANNELS 3 Zrotation Xrotation Yrotation
            JOINT HandLeft
            {
              OFFSET 1.320436 -7.623313 -0.712374
              CHANNELS 3 Zrotation Xrotation Yrotation
              JOINT HandTipLeft
              {
                OFFSET 2.096846 -6.631265 0.555678
                CHANNELS 3 Zrotation Xrotation Yrotation
                End Site
                {
                  OFFSET 0 0 0
                }
              }
              JOINT ThumbLeft
              {
                OFFSET -1.753323 -1.550416 -2.938005
                CHANNELS 3 Zrotation Xrotation Yrotation
                End Site
                {
                  OFFSET 0 0 0
                }
              }
            }
          }
        }
      }
      JOINT ShoulderRight
      {
        OFFSET 5.452339 -5.147473 13.764963
        CHANNELS 3 Zrotation Xrotation Yrotation
        JOINT ElbowRight
        {
          OFFSET 1.143331 -27.516046 10.400223
          CHANNELS 3 Zrotation Xrotation Yrotation
          JOINT WristRight
          {
            OFFSET 1.370709 -22.971323 -1.973645
            CHANNELS 3 Zrotation Xrotation Yrotation
            JOINT HandRight
            {
              OFFSET 0.319039 -7.458685 0.072128
              CHANNELS 3 Zrotation Xrotation Yrotation
              JOINT HandTipRight
              {
                OFFSET 0.698169 0.039494 -1.126156
                CHANNELS 3 Zrotation Xrotation Yrotation
                End Site
                {
                  OFFSET 0 0 0
                }
              }
              JOINT ThumbRight
              {
                OFFSET 0.014821 1.390831 -1.933457
                CHANNELS 3 Zrotation Xrotation Yrotation
                End Site
                {
                  OFFSET 0 0 0
                }
              }
            }
          }
        }
      }
    }
  }
  JOINT HipLeft
  {
    OFFSET -1.064117 1.972623 -10.024099
    CHANNELS 3 Zrotation Xrotation Yrotation
    JOINT KneeLeft
    {
      OFFSET 2.196171 -36.599723 -1.363643
      CHANNELS 3 Zrotation Xrotation Yrotation
      JOINT AnkleLeft
      {
        OFFSET -3.297681 -35.029964 4.100278
        CHANNELS 3 Zrotation Xrotation Yrotation
        JOINT FootLeft
        {
          OFFSET 4.710936 -7.665850 -2.050137
          CHANNELS 3 Zrotation Xrotation Yrotation
          End Site
          {
            OFFSET 0 0 0
          }
        }
      }
    }
  }
  JOINT HipRight
  {
    OFFSET 3.313464 0.349310 3.500671
    CHANNELS 3 Zrotation Xrotation Yrotation
    JOINT KneeRight
    {
      OFFSET 7.555841 -37.651047 7.790365
      CHANNELS 3 Zrotation Xrotation Yrotation
      JOINT AnkleRight
      {
        OFFSET -6.503788 -34.489893 8.903849
        CHANNELS 3 Zrotation Xrotation Yrotation
        JOINT FootRight
        {
          OFFSET 12.533837 -1.960102 -6.883995
          CHANNELS 3 Zrotation Xrotation Yrotation
          End Site
          {
            OFFSET 0 0 0
          }
        }
      }
    }
  }
}
MOTION
Frames: 14
Frame Time: 0.033333
-95.863628 95.832117 274.368753 -0.000000 -0.000000 -72.064717 -0.000000 0.000000 72.064717 -0.000000 0.000000 0.000000 -0.000000 0.000000 0.000000 0.000000 0.000000 0.000000 -0.000000 0.000000 0.000000 -0.000000 0.000000 0.000000 -0.000000 0.000000 0.000000 -0.000000 0.000000 0.000000 0.000000 0.000000 0.000000 0.000000 0.000000 0.000000 -0.000000 0.000000 0.000000 -0.000000 0.000000 0.000000 -0.000000 0.000000 0.000000 -0.000000 0.000000 0.000000 0.000000 0.000000 0.000000 0.000000 0.000000 0.000000 -0.000000 0.000000 72.064717 -0.000000 0.000000 0.000000 -0.000000 0.000000 0.000000 0.000000 0.000000 0.000000 -0.000000 0.000000 72.064717 -0.000000 0.000000 0.000000 -0.000000 0.000000 0.000000 0.000000 0.000000 0.000000
-96.251768 95.851249 274.008593 0.206166 0.113255 -72.030624 0.044127 -0.231049 72.030509 -0.000000 0.000000 0.000000 -0.000000 0.000000 0.000000 0.000000 0.000000 0.000000 -0.831105 -0.804542 0.165226 -0.315376 0.096959 -0.260453 0.205565 -6.932105 -1.212061 -1.232090 6.415251 0.889369 0.000000 0.000000 0.000000 0.000000 0.000000 0.000000 -0.000000 0.000000 0.000000 1.136314 -1.831045 -0.188890 0.677538 -3.902063 0.030352 -25.038372 -30.411952 -2.693554 0.000000 0.000000 0.000000 0.000000 0.000000 0.000000 1.063191 0.361906 71.949441 -0.879570 0.785165 0.085931 -0.000000 0.000000 0.000000 0.000000 0.000000 0.000000 0.788455 0.093662 72.020860 -0.538629 0.607741 0.013399 -7.932073 -4.494664 -2.781160 0.000000 0.000000 0.000000
-96.436134 95.883582 273.755235 0.576080 0.141427 -72.019205 -0.043322 -0.591601 72.018270 -0.000000 0.000000 0.000000 1.095391 -0.795340 -0.311699 0.000000 0.000000 0.000000 -1.531303 -1.588259 0.278857 -0.558589 0.159042 -0.511659 0.395351 -12.375673 -2.240719 -2.263252 11.573148 1.913948 0.000000 0.000000 0.000000 0.000000 0.000000 0.000000 -0.000000 0.000000 0.000000 2.219224 -3.417641 -0.328934 0.987254 -7.087036 0.146235 -38.336079 -41.797660 -6.578566 0.000000 0.000000 0.000000 0.000000 0.000000 0.000000 1.701379 0.325715 71.887183 -1.414524 1.372906 0.152084 -0.000000 0.000000 0.000000 0.000000 0.000000 0.000000 1.176144 -0.163217 71.982388 -0.784703 1.027056 0.050949 -18.268023 -9.496364 -7.223381 0.000000 0.000000 0.000000
-96.416729 95.929118 273.608680 1.110587 0.084134 -72.028907 -0.262669 -1.082356 72.025611 -0.000000 0.000000 0.000000 1.664033 -1.161488 -0.485225 0.000000 0.000000 0.000000 -2.099932 -2.349508 0.343438 -0.731306 0.183552 -0.756085 0.606057 -16.596484 -3.072474 -3.095570 15.719532 2.924988 0.000000 0.000000 0.000000 0.000000 0.000000 0.000000 -0.000000 0.000000 0.000000 3.267386 -4.793952 -0.431033 0.820115 -9.283040 0.303870 -44.131036 -45.807067 -7.728344 0.000000 0.000000 0.000000 0.000000 0.000000 0.000000 1.910618 -0.109452 71.882743 -1.601194 1.762408 0.190104 -0.000000 0.000000 0.000000 0.000000 0.000000 0.000000 1.151329 -0.779268 71.947664 -0.726639 1.250120 0.108846 -30.433869 -13.992579 -13.373869 0.000000 0.000000 0.000000
-96.193551 95.987856 273.568927 1.810524 -0.059030 -72.056631 -0.614102 -1.704251 72.048429 -0.000000 0.000000 0.000000 2.252285 -1.511420 -0.672189 0.000000 0.000000 0.000000 -2.536332 -3.087187 0.361410 -0.835118 0.167999 -0.995827 0.867202 -19.847592 -3.705312 -3.732147 19.093478 3.844135 0.000000 0.000000 0.000000 0.000000 0.000000 0.000000 -0.000000 0.000000 0.000000 4.296879 -5.987644 -0.503263 0.087593 -10.308051 0.466750 -46.704165 -47.720443 -7.997548 0.000000 0.000000 0.000000 0.000000 0.000000 0.000000 1.688874 -0.945805 71.930958 -1.436520 1.952750 0.195218 -0.000000 0.000000 0.000000 0.000000 0.000000 0.000000 0.703282 -1.763345 71.905996 -0.672760 2.005786 -0.025690 -42.278029 -17.594712 -20.548921 0.000000 0.000000 0.000000
-95.766601 96.059796 273.635977 2.676590 -0.288420 -72.097685 -1.028872 -1.396953 72.119464 -0.089330 -0.121798 0.033012 1.920710 -1.989743 -0.936686 0.000000 0.000000 0.000000 -3.786731 -3.935106 0.258503 -0.871385 0.110094 -1.232558 1.212771 -22.334956 -4.141961 -4.193193 21.889314 4.636939 0.000000 0.000000 0.000000 0.000000 0.000000 0.000000 -0.941912 -0.138068 -0.069628 5.322125 -7.020943 -0.551709 -1.286395 -10.025253 0.624807 -48.113705 -49.166492 -8.766164 0.000000 0.000000 0.000000 0.000000 0.000000 0.000000 1.035119 -2.186877 72.016575 -0.917864 1.942407 0.166299 -0.000000 0.000000 0.000000 0.000000 0.000000 0.000000 -0.178448 -3.123934 71.836930 -0.000955 1.847210 0.060523 -51.965649 -18.741073 -26.595751 0.000000 0.000000 0.000000
-94.791781 96.168996 273.948217 4.174356 -0.768207 -72.275792 -1.507371 -2.083503 72.325298 -0.148361 -0.119190 0.059825 2.147665 -2.150613 -1.315856 0.000000 0.000000 0.000000 -4.638657 -4.425878 0.158714 -0.792936 -0.257587 -1.601907 2.552732 -24.052545 -4.217835 -4.768431 24.877082 5.567207 0.000000 0.000000 0.000000 0.000000 0.000000 0.000000 -1.582489 0.089591 -0.118720 6.827014 -8.406575 -0.589068 -4.082205 -5.467686 0.957696 -53.521000 -52.548646 -16.074872 0.000000 0.000000 0.000000 0.000000 0.000000 0.000000 -0.747558 -4.758831 72.263077 0.585491 1.503771 0.060692 -0.000000 0.000000 0.000000 0.000000 0.000000 0.000000 -2.181572 -5.728630 71.731872 1.567660 1.191372 0.254667 -59.133470 -18.687345 -31.635939 0.000000 0.000000 0.000000
-93.779911 96.284407 274.284601 5.626302 -1.255176 -72.382113 -1.927688 -2.662979 72.472410 -0.199154 -0.092168 0.090012 2.270922 -2.263185 -1.707960 0.000000 0.000000 0.000000 -5.341760 -4.904427 -0.018043 -0.742556 -0.441638 -1.840555 3.753055 -25.436601 -4.203619 -5.399735 26.605101 6.112061 0.000000 0.000000 0.000000 0.000000 0.000000 0.000000 -2.304868 0.323666 -0.171155 8.198957 -9.471077 -0.593397 -7.906476 3.275379 1.648029 -62.967970 -56.810054 -29.861264 0.000000 0.000000 0.000000 0.000000 0.000000 0.000000 -2.616125 -7.296571 72.368678 2.119414 0.973070 -0.038529 -0.000000 0.000000 0.000000 0.000000 0.000000 0.000000 -4.335283 -8.342064 71.460529 3.637573 -0.285948 0.699768 -60.249680 -17.706261 -32.566880 0.000000 0.000000 0.000000
-92.846280 96.394555 274.639597 6.869916 -1.706223 -72.334642 -2.244751 -3.061067 72.475848 -0.231393 -0.043080 0.120447 2.360850 -2.368665 -2.096106 0.000000 0.000000 0.000000 -5.948684 -5.321084 -0.215501 -0.539088 -0.600392 -2.059664 3.875951 -27.017222 -4.248022 -5.541353 28.534063 6.541035 0.000000 0.000000 0.000000 0.000000 0.000000 0.000000 -3.038493 0.552061 -0.221508 9.657488 -10.354505 -0.575728 -13.770120 8.072041 2.823794 -62.862637 -59.543794 -33.699367 0.000000 0.000000 0.000000 0.000000 0.000000 0.000000 -4.371520 -9.520047 72.257231 3.092835 1.120895 -0.226709 0.434465 -0.675824 0.117000 0.000000 0.000000 0.000000 -6.425768 -10.574025 71.004786 5.167923 -1.071965 0.893429 -53.197602 -17.244323 -29.231532 0.000000 0.000000 0.000000
-92.079863 96.475895 274.978511 7.776998 -2.080131 -72.253893 -2.433681 -3.244833 72.447896 -0.226680 0.012765 0.148635 2.249774 -2.541078 -2.324301 0.000000 0.000000 0.000000 -6.442980 -5.649409 -0.404845 -0.111162 -0.644013 -2.239303 3.747665 -27.607731 -4.069532 -5.015893 30.037258 6.619577 0.000000 0.000000 0.000000 0.000000 0.000000 0.000000 -3.714148 0.757077 -0.265405 10.037470 -9.969444 -0.584595 -16.374331 7.165668 3.076871 -57.033261 -59.267338 -29.861522 0.000000 0.000000 0.000000 0.000000 0.000000 0.000000 -5.887167 -11.179870 72.077315 4.209600 0.638434 -0.293866 0.441998 0.224911 0.708347 0.000000 0.000000 0.000000 -8.222688 -12.229797 70.550192 6.405521 -1.808670 1.049721 -52.397293 -17.181841 -28.814893 0.000000 0.000000 0.000000
-91.636403 96.582870 275.273042 8.230734 -2.359222 -72.075839 -2.423622 -2.999522 72.323952 -0.146132 0.065826 0.181363 1.376456 -2.532760 -2.270972 0.000000 0.000000 0.000000 -6.916974 -5.820960 -0.601523 0.180847 -0.602679 -2.294733 3.631767 -26.919944 -3.708781 -4.691792 30.269681 6.546932 0.000000 0.000000 0.000000 0.000000 0.000000 0.000000 -4.478552 0.937044 -0.313410 9.627845 -8.877575 -0.611804 -15.752698 3.846916 2.497480 -58.381056 -58.661050 -30.584623 0.000000 0.000000 0.000000 0.000000 0.000000 0.000000 -6.924561 -11.882277 71.820311 4.715002 0.251230 -0.331852 0.276269 0.380350 0.897231 0.000000 0.000000 0.000000 -9.616466 -13.008159 70.145959 7.151450 -2.516256 1.114766 -51.753366 -17.231115 -28.186192 0.000000 0.000000 0.000000
-91.760969 96.599633 275.349286 7.849616 -2.339859 -71.781700 -2.104590 -2.471699 72.049168 -0.276552 0.123493 0.179963 0.699903 -2.728600 -1.857744 0.000000 0.000000 0.000000 -6.565225 -5.927301 -0.771543 0.143623 -0.582652 -2.225414 4.522063 -24.325812 -3.051392 -4.186419 28.007582 5.775799 0.000000 0.000000 0.000000 0.000000 0.000000 0.000000 -4.560071 1.018276 -0.316872 8.398180 -8.429661 -0.607919 -16.814794 5.542182 2.656396 -55.268817 -58.465382 -31.027321 0.000000 0.000000 0.000000 0.000000 0.000000 0.000000 -7.028630 -10.906778 71.535359 4.088565 -0.222423 -0.331432 0.329942 0.630840 1.005109 0.000000 0.000000 0.000000 -9.770886 -12.346393 69.962860 6.982924 -2.833176 1.032881 -51.322163 -17.232622 -27.844524 0.000000 0.000000 0.000000
-92.534941 96.509062 275.200233 6.518452 -1.990715 -71.405430 -1.454311 -1.552562 71.648266 -0.384901 0.202587 0.158853 -0.723319 -2.697132 -0.914911 0.000000 0.000000 0.000000 -5.818761 -6.125339 -0.888429 0.129386 -0.272988 -2.041694 4.990633 -21.469423 -2.515269 -1.609617 24.892442 4.086501 0.000000 0.000000 0.000000 0.000000 0.000000 0.000000 -4.191938 0.929633 -0.294413 7.370085 -8.425200 -0.595610 -17.355508 9.434308 3.174293 -65.087313 -58.273568 -45.283643 0.000000 0.000000 0.000000 0.000000 0.000000 0.000000 -6.055103 -8.079815 71.262334 2.209580 -0.804983 -0.299615 -3.706413 -1.243396 0.763421 0.000000 0.000000 0.000000 -8.281572 -10.085357 70.068152 5.715717 -2.494072 0.795980 -51.006803 -17.238226 -27.577146 0.000000 0.000000 0.000000
-92.558599 96.529774 275.202398 6.326307 -1.950085 -71.170223 -1.327475 -1.569678 71.410873 -0.183419 0.160337 0.168766 -2.531364 -2.200893 -0.106017 0.000000 0.000000 0.000000 -5.792026 -6.062438 -0.913640 0.608458 0.131521 -1.988057 5.382626 -17.534481 -1.860176 -0.924924 20.374487 3.128469 0.000000 0.000000 0.000000 0.000000 0.000000 0.000000 -4.221672 1.064521 -0.293499 6.064682 -8.449729 -0.580082 -17.280081 11.135351 3.394562 -67.163155 -56.344970 -51.583999 0.000000 0.000000 0.000000 0.000000 0.000000 0.000000 -6.359289 -7.196383 71.023864 1.452353 -1.836641 -0.308912 2.265766 2.144981 1.008891 0.000000 0.000000 0.000000 -8.105922 -9.803126 69.875786 5.601118 -2.417869 0.781752 -56.976046 -17.147115 -31.997330 0.000000 0.000000 0.000000
